<svg width="20" height="20" viewBox="0 0 20 20" fill="none" xmlns="http://www.w3.org/2000/svg">
<g clip-path="url(#clip0_52_484)">
<path d="M18.3334 3.33333H14.1667V1.66667C14.1667 1.22464 13.9912 0.800716 13.6786 0.488155C13.366 0.175595 12.9421 0 12.5001 0L7.50008 0C7.05805 0 6.63413 0.175595 6.32157 0.488155C6.00901 0.800716 5.83342 1.22464 5.83342 1.66667V3.33333H1.66675V5H3.33341V17.5C3.33341 18.163 3.59681 18.7989 4.06565 19.2678C4.53449 19.7366 5.17037 20 5.83342 20H14.1667C14.8298 20 15.4657 19.7366 15.9345 19.2678C16.4034 18.7989 16.6667 18.163 16.6667 17.5V5H18.3334V3.33333ZM7.50008 1.66667H12.5001V3.33333H7.50008V1.66667ZM15.0001 17.5C15.0001 17.721 14.9123 17.933 14.756 18.0893C14.5997 18.2455 14.3878 18.3333 14.1667 18.3333H5.83342C5.6124 18.3333 5.40044 18.2455 5.24416 18.0893C5.08788 17.933 5.00008 17.721 5.00008 17.5V5H15.0001V17.5Z" fill="#5F5E5B"/>
<path d="M9.16666 8.33276H7.5V14.9994H9.16666V8.33276Z" fill="#5F5E5B"/>
<path d="M12.5002 8.33276H10.8335V14.9994H12.5002V8.33276Z" fill="#5F5E5B"/>
</g>
<defs>
<clipPath id="clip0_52_484">
<rect width="20" height="20" fill="white"/>
</clipPath>
</defs>
</svg>
